# xmcd
#
# Track frame offsets:
#	150
#	13764
#	29209
#	39126
#	58618
#	73790
#	88083
#	105025
#	117355
#	127436
#	137535
#	151288
#	163827
#	179702
#	193800
#	205795
#
# Disc length: 2905 seconds
#
# Revision: 1
# Processed by: cddbd v1.5.2PL0 Copyright (c) Steve Scherf et al.
# Submitted via: EasyCDDAExtractor 12.0.1.1
#
DISCID=e80b5710
DTITLE=Various Artist - Country Ballads
DYEAR=1900
DGENRE=Country
TTITLE0=John Denver - Annie's song (live)
TTITLE1=Olivia Newton-John - Help me make it through the night
TTITLE2=Willie Nelson - Healing hands of time
TTITLE3=Kenny Rogers - She believes in me
TTITLE4=Billie Jo Spears - Blanket on the ground
TTITLE5=Freddie Fender - Wasted days and wasted nights
TTITLE6=Lynn Anderson - Blue Bayou
TTITLE7=Charlie Rich - Behind closed doors
TTITLE8=Patsy Cline - Three cigarettes in an ashtray
TTITLE9=Porter Waggoner - Green green grass of home
TTITLE10=Anne Murray - Last thing on my mind
TTITLE11=Billy Joe Royal - Raindrops keep fallin' on my head
TTITLE12=Connie Francis - It doesn't matter anymore
TTITLE13=George Jones - A good year for the roses
TTITLE14=Tammy Wynette - Stand by your man
TTITLE15=Johnny Cash - Peace in the valley
EXTD=
EXTT0=
EXTT1=
EXTT2=
EXTT3=
EXTT4=
EXTT5=
EXTT6=
EXTT7=
EXTT8=
EXTT9=
EXTT10=
EXTT11=
EXTT12=
EXTT13=
EXTT14=
EXTT15=
PLAYORDER=
